{
	"asset":{
		"generator":"Khronos glTF Blender I/O v4.3.47",
		"version":"2.0"
	},
	"extensionsUsed":[
		"KHR_texture_transform"
	],
	"extensionsRequired":[
		"KHR_texture_transform"
	],
	"scene":0,
	"scenes":[
		{
			"extras":{
				"texToolsSettings":{}
			},
			"name":"Scene",
			"nodes":[
				0,
				1,
				2
			]
		}
	],
	"nodes":[
		{
			"mesh":0,
			"name":"Cube.001",
			"scale":[
				44.05978012084961,
				18.358360290527344,
				44.05978012084961
			],
			"translation":[
				1.6308135986328125,
				-5.746477127075195,
				-3.180652618408203
			]
		},
		{
			"mesh":1,
			"name":"Cube.003",
			"scale":[
				44.05978012084961,
				18.358360290527344,
				44.05978012084961
			],
			"translation":[
				1.6308135986328125,
				-5.746477127075195,
				-80.53094482421875
			]
		},
		{
			"mesh":2,
			"name":"woodbridge",
			"scale":[
				0.9567049145698547,
				0.9567049145698547,
				0.9567049145698547
			],
			"translation":[
				2.3443868160247803,
				-0.008255362510681152,
				-41.90739440917969
			]
		}
	],
	"materials":[
		{
			"doubleSided":true,
			"name":"mat_soil",
			"normalTexture":{
				"extensions":{
					"KHR_texture_transform":{
						"offset":[
							0,
							-199
						],
						"scale":[
							200,
							200
						]
					}
				},
				"index":0
			},
			"pbrMetallicRoughness":{
				"baseColorTexture":{
					"extensions":{
						"KHR_texture_transform":{
							"offset":[
								0,
								-199
							],
							"scale":[
								200,
								200
							]
						}
					},
					"index":1
				},
				"metallicFactor":0,
				"roughnessFactor":0.5
			}
		},
		{
			"doubleSided":true,
			"name":"mat_pillar",
			"pbrMetallicRoughness":{
				"baseColorTexture":{
					"index":2
				},
				"metallicFactor":0,
				"roughnessFactor":0.5
			}
		},
		{
			"doubleSided":true,
			"name":"mat_planks",
			"pbrMetallicRoughness":{
				"baseColorTexture":{
					"index":3
				},
				"metallicFactor":0,
				"roughnessFactor":0.5
			}
		}
	],
	"meshes":[
		{
			"name":"Cube.005",
			"primitives":[
				{
					"attributes":{
						"POSITION":0,
						"NORMAL":1,
						"TEXCOORD_0":2,
						"TANGENT":3
					},
					"indices":4,
					"material":0
				}
			]
		},
		{
			"name":"Cube.007",
			"primitives":[
				{
					"attributes":{
						"POSITION":5,
						"NORMAL":6,
						"TEXCOORD_0":7,
						"TANGENT":8
					},
					"indices":9,
					"material":0
				}
			]
		},
		{
			"name":"Cube.016",
			"primitives":[
				{
					"attributes":{
						"POSITION":10,
						"NORMAL":11,
						"TEXCOORD_0":12,
						"TANGENT":13
					},
					"indices":14,
					"material":1
				},
				{
					"attributes":{
						"POSITION":15,
						"NORMAL":16,
						"TEXCOORD_0":17,
						"TANGENT":18
					},
					"indices":19,
					"material":2
				}
			]
		}
	],
	"textures":[
		{
			"sampler":0,
			"source":0
		},
		{
			"sampler":0,
			"source":1
		},
		{
			"sampler":0,
			"source":2
		},
		{
			"sampler":0,
			"source":3
		}
	],
	"images":[
		{
			"mimeType":"image/png",
			"name":"Soil01_normal.png",
			"uri":"textures/Soil01_normal.png"
		},
		{
			"mimeType":"image/png",
			"name":"Soil01.png.001",
			"uri":"textures/Soil01.png"
		},
		{
			"mimeType":"image/jpeg",
			"name":"Pillar_02",
			"uri":"textures/Pillar_02.jpg"
		},
		{
			"mimeType":"image/jpeg",
			"name":"Planks_02.jpg",
			"uri":"textures/Planks_02.jpg"
		}
	],
	"accessors":[
		{
			"bufferView":0,
			"componentType":5126,
			"count":1431,
			"max":[
				0.8157832026481628,
				0.3238917589187622,
				0.8004612922668457
			],
			"min":[
				-0.8004961013793945,
				-1.7275683879852295,
				-0.7943263649940491
			],
			"type":"VEC3"
		},
		{
			"bufferView":1,
			"componentType":5126,
			"count":1431,
			"type":"VEC3"
		},
		{
			"bufferView":2,
			"componentType":5126,
			"count":1431,
			"type":"VEC2"
		},
		{
			"bufferView":3,
			"componentType":5126,
			"count":1431,
			"type":"VEC4"
		},
		{
			"bufferView":4,
			"componentType":5123,
			"count":7776,
			"type":"SCALAR"
		},
		{
			"bufferView":5,
			"componentType":5126,
			"count":1431,
			"max":[
				0.8406075239181519,
				0.3224121034145355,
				0.8654263019561768
			],
			"min":[
				-0.8631676435470581,
				-1.7275683879852295,
				-0.7943263649940491
			],
			"type":"VEC3"
		},
		{
			"bufferView":6,
			"componentType":5126,
			"count":1431,
			"type":"VEC3"
		},
		{
			"bufferView":7,
			"componentType":5126,
			"count":1431,
			"type":"VEC2"
		},
		{
			"bufferView":8,
			"componentType":5126,
			"count":1431,
			"type":"VEC4"
		},
		{
			"bufferView":9,
			"componentType":5123,
			"count":7776,
			"type":"SCALAR"
		},
		{
			"bufferView":10,
			"componentType":5126,
			"count":1236,
			"max":[
				3.753098249435425,
				3.769737482070923,
				7.090435028076172
			],
			"min":[
				-3.749263286590576,
				-7.431425094604492,
				-7.068044185638428
			],
			"type":"VEC3"
		},
		{
			"bufferView":11,
			"componentType":5126,
			"count":1236,
			"type":"VEC3"
		},
		{
			"bufferView":12,
			"componentType":5126,
			"count":1236,
			"type":"VEC2"
		},
		{
			"bufferView":13,
			"componentType":5126,
			"count":1236,
			"type":"VEC4"
		},
		{
			"bufferView":14,
			"componentType":5123,
			"count":1380,
			"type":"SCALAR"
		},
		{
			"bufferView":15,
			"componentType":5126,
			"count":1622,
			"max":[
				3.2542836666107178,
				-0.24217653274536133,
				7.510298252105713
			],
			"min":[
				-3.2315523624420166,
				-1.8014593124389648,
				-7.343879222869873
			],
			"type":"VEC3"
		},
		{
			"bufferView":16,
			"componentType":5126,
			"count":1622,
			"type":"VEC3"
		},
		{
			"bufferView":17,
			"componentType":5126,
			"count":1622,
			"type":"VEC2"
		},
		{
			"bufferView":18,
			"componentType":5126,
			"count":1622,
			"type":"VEC4"
		},
		{
			"bufferView":19,
			"componentType":5123,
			"count":2016,
			"type":"SCALAR"
		}
	],
	"bufferViews":[
		{
			"buffer":0,
			"byteLength":17172,
			"byteOffset":0,
			"target":34962
		},
		{
			"buffer":0,
			"byteLength":17172,
			"byteOffset":17172,
			"target":34962
		},
		{
			"buffer":0,
			"byteLength":11448,
			"byteOffset":34344,
			"target":34962
		},
		{
			"buffer":0,
			"byteLength":22896,
			"byteOffset":45792,
			"target":34962
		},
		{
			"buffer":0,
			"byteLength":15552,
			"byteOffset":68688,
			"target":34963
		},
		{
			"buffer":0,
			"byteLength":17172,
			"byteOffset":84240,
			"target":34962
		},
		{
			"buffer":0,
			"byteLength":17172,
			"byteOffset":101412,
			"target":34962
		},
		{
			"buffer":0,
			"byteLength":11448,
			"byteOffset":118584,
			"target":34962
		},
		{
			"buffer":0,
			"byteLength":22896,
			"byteOffset":130032,
			"target":34962
		},
		{
			"buffer":0,
			"byteLength":15552,
			"byteOffset":152928,
			"target":34963
		},
		{
			"buffer":0,
			"byteLength":14832,
			"byteOffset":168480,
			"target":34962
		},
		{
			"buffer":0,
			"byteLength":14832,
			"byteOffset":183312,
			"target":34962
		},
		{
			"buffer":0,
			"byteLength":9888,
			"byteOffset":198144,
			"target":34962
		},
		{
			"buffer":0,
			"byteLength":19776,
			"byteOffset":208032,
			"target":34962
		},
		{
			"buffer":0,
			"byteLength":2760,
			"byteOffset":227808,
			"target":34963
		},
		{
			"buffer":0,
			"byteLength":19464,
			"byteOffset":230568,
			"target":34962
		},
		{
			"buffer":0,
			"byteLength":19464,
			"byteOffset":250032,
			"target":34962
		},
		{
			"buffer":0,
			"byteLength":12976,
			"byteOffset":269496,
			"target":34962
		},
		{
			"buffer":0,
			"byteLength":25952,
			"byteOffset":282472,
			"target":34962
		},
		{
			"buffer":0,
			"byteLength":4032,
			"byteOffset":308424,
			"target":34963
		}
	],
	"samplers":[
		{
			"magFilter":9729,
			"minFilter":9987
		}
	],
	"buffers":[
		{
			"byteLength":312456,
			"uri":"level.bin"
		}
	]
}
